<?xml version="1.0" encoding="UTF-8"?>
<svg id="Layer_1" xmlns="http://www.w3.org/2000/svg" version="1.1" viewBox="0 0 799.268 570.189">
  <!-- Generator: Adobe Illustrator 30.1.0, SVG Export Plug-In . SVG Version: 2.1.1 Build 136)  -->
  <defs>
    <style>
      .st0, .st1 {
        fill: #fff;
      }

      .st1 {
        fill-rule: evenodd;
      }
    </style>
  </defs>
  <polygon class="st0" points="585.41 550.759 585.769 550.759 585.41 551.238 585.41 550.759"/>
  <polygon class="st0" points="732.415 482.108 777.582 423.642 799.268 395.487 763.685 395.487 763.325 395.487 732.415 395.487 723.788 395.487 718.637 402.316 694.555 433.466 670.594 402.316 665.322 395.487 656.816 395.487 625.665 395.487 590.202 395.487 611.887 423.642 657.055 482.108 612.247 540.096 590.562 568.251 626.025 568.251 657.175 568.251 665.801 568.251 670.953 561.541 694.795 530.751 718.637 561.541 723.908 568.251 732.415 568.251 763.565 568.251 799.148 568.251 777.343 540.096 732.415 482.108"/>
  <polygon class="st0" points="733.732 551.238 733.493 550.759 733.732 550.759 733.732 551.238"/>
  <path class="st0" d="M325.354,549.649h-27.404l-12.528-24.467-29.95-58.724-29.949,58.724-12.528,24.467h-27.404l12.528-24.467,57.353-112.555,57.355,112.555,12.528,24.467Z"/>
  <path class="st0" d="M299.313,549.649h.391l-.391.391v-.391ZM436.335,412.431l-53.047,68.707-2.936,3.72v64.595h-24.469v-64.204l-3.328-4.111-53.047-68.707h30.928l37.583,48.742,37.583-48.742h30.731ZM436.14,549.649h.196v.391l-.196-.391Z"/>
  <path class="st0" d="M459.82,449.623v12.723h88.086v24.469h-88.086v25.838c0,6.852,5.676,12.528,12.528,12.528h100.027v24.467h-100.027c-20.358,0-36.801-16.637-36.801-36.995v-63.03c0-20.358,16.443-36.997,36.801-36.997h100.027v24.469h-100.027c-6.852,0-12.528,5.677-12.528,12.528Z"/>
  <g>
    <g>
      <g>
        <path class="st1" d="M339.466,145.567c15.096,0,27.316,12.22,27.316,27.316s-12.22,27.316-27.316,27.316-27.316-12.22-27.316-27.316c0-15.096,12.22-27.316,27.316-27.316"/>
        <path class="st0" d="M339.466,132.149c11.262,0,21.446,4.553,28.754,11.861,7.308,7.428,11.861,17.492,11.861,28.754s-4.553,21.326-11.861,28.754c-7.308,7.308-17.492,11.861-28.754,11.861s-21.326-4.553-28.754-11.861c-7.428-7.428-11.861-17.492-11.861-28.754s4.553-21.326,11.861-28.754c7.308-7.308,17.492-11.861,28.754-11.861M364.506,147.843c-6.35-6.35-15.216-10.304-25.04-10.304-9.704,0-18.57,3.954-25.04,10.304-6.35,6.35-10.304,15.216-10.304,25.04,0,9.704,3.954,18.57,10.304,25.04,6.35,6.35,15.216,10.304,25.04,10.304s18.57-3.954,25.04-10.304c6.35-6.35,10.423-15.216,10.423-25.04-.12-9.824-4.074-18.69-10.423-25.04"/>
      </g>
      <g>
        <path class="st1" d="M493.299,145.567c15.096,0,27.316,12.22,27.316,27.316s-12.22,27.316-27.316,27.316-27.316-12.22-27.316-27.316,12.22-27.316,27.316-27.316"/>
        <path class="st0" d="M493.299,132.149c11.262,0,21.326,4.553,28.754,11.861,7.428,7.428,11.861,17.492,11.861,28.754s-4.553,21.326-11.861,28.754c-7.308,7.308-17.492,11.861-28.754,11.861s-21.446-4.553-28.754-11.861c-7.308-7.428-11.861-17.492-11.861-28.754s4.553-21.326,11.861-28.754c7.308-7.308,17.492-11.861,28.754-11.861M518.22,147.843c-6.35-6.35-15.216-10.304-25.04-10.304s-18.57,3.954-25.04,10.304c-6.35,6.35-10.423,15.216-10.423,25.04,0,9.704,3.954,18.57,10.423,25.04,6.35,6.35,15.216,10.304,25.04,10.304,9.704,0,18.57-3.954,25.04-10.304,6.35-6.35,10.303-15.216,10.303-25.04.12-9.824-3.834-18.69-10.303-25.04"/>
      </g>
    </g>
    <path class="st1" d="M663.188,19.768c-9.345,15.455-26.597,40.615-30.192,47.324l-2.396-28.754-47.324,49.96c-16.294-30.911-46.006-53.674-81.35-60.383-8.866-15.695-44.688-27.077-81.47-27.915h-8.147c-36.781.839-72.604,12.22-81.47,27.915-35.343,6.709-65.056,29.473-81.35,60.383l-47.324-50.08-2.396,28.754c-3.594-6.589-20.847-31.869-30.192-47.324-2.516,9.105,5.631,80.152,7.788,89.257,2.157,8.986,17.013,70.807,28.395,69.848,1.557-.599,4.673-13.059,8.387-24.321l25.998,48.283c12.22,48.642,51.997,86.741,101.478,96.446.479-3.594,1.318-7.069,2.636-10.304-55.351-10.543-97.524-59.425-97.524-117.772v-29.353c0-50.08,35.343-92.372,82.428-102.915.12.359.24.719.359,1.078l27.676,74.76c3.474,9.345,9.345,17.492,20.487,17.492h77.396c11.142,0,17.013-8.147,20.487-17.492l27.676-74.521c.12-.359.24-.719.359-1.078,46.965,10.663,82.428,52.835,82.428,102.915v29.353c0,58.347-42.173,107.228-97.524,117.772,1.318,3.235,2.157,6.709,2.636,10.304,49.601-9.704,89.257-47.804,101.478-96.446l25.998-48.283c3.834,11.142,6.829,23.602,8.387,24.321,11.382,1.078,26.238-60.863,28.395-69.848,2.157-9.345,10.304-80.272,7.788-89.377ZM208.036,128.554l-4.673,30.551c-13.658-39.537-20.847-69.249-26.478-111.661l28.994,53.075,5.391-40.136,33.426,38.219c-5.511,13.419-8.506,28.035-8.506,43.371v29.353c0,1.677,0,3.355.12,5.032l-28.275-47.803ZM493.18,36.422l-27.676,74.521c-2.037,5.391-4.792,10.543-10.543,10.543h-77.157c-5.751,0-8.506-5.152-10.543-10.543l-27.676-74.521c-3.235-8.866,37.38-20.847,76.917-21.206,39.297.359,80.032,12.34,76.677,21.206ZM629.282,159.105l-4.673-30.551-28.275,47.803c.12-1.677.12-3.355.12-5.032v-29.353c0-15.335-2.995-29.952-8.506-43.371l33.427-38.219,5.391,40.136,28.994-53.075c-5.631,42.292-12.7,72.125-26.478,111.661Z"/>
    <path class="st0" d="M465.384,259.145h-98.003c-34.984,0-53.674-17.252-60.024-24.441l-5.272,4.313c7.188,8.147,27.676,26.837,65.295,26.837h98.003c37.5,0,57.987-18.69,65.295-26.837l-5.272-4.313c-6.35,7.308-25.04,24.441-60.024,24.441Z"/>
    <path class="st1" d="M478.922,277.476c-5.751-2.995-11.981-2.756-17.971-.479-6.23,2.396-12.46,5.751-18.211,8.986-2.875,1.558-5.871,3.235-8.746,4.912-2.875-1.677-6.23-2.516-9.704-2.516h-15.695c-3.594,0-6.829.958-9.704,2.516-2.875-1.677-5.871-3.355-8.746-4.912-5.871-3.235-11.981-6.589-18.211-8.986-5.871-2.276-12.22-2.516-17.971.479-13.299,6.829-15.216,25.759-14.137,38.938,1.078,13.059,6.23,34.026,21.446,37.021,2.636.479,5.272.359,7.907-.24,9.944-2.636,21.086-8.147,31.03-14.377,2.516,1.198,5.391,1.917,8.506,1.917h15.695c2.995,0,5.871-.719,8.506-1.917,10.064,6.11,21.206,11.741,31.03,14.377,2.516.719,5.272.839,7.907.24,15.216-2.995,20.487-23.962,21.446-37.021.839-13.179-1.078-32.228-14.377-38.938ZM366.183,342.891c-18.57,5.032-25.399-66.494,1.677-56.19,5.99,2.276,13.658,6.47,23.123,11.741-1.557,2.875-2.516,6.11-2.516,9.585v1.318c-4.433-1.438-10.423-2.875-18.091-4.673,12.819,8.027,8.866,5.99,17.492,10.304-9.585,5.631-5.152,2.875-18.45,12.819,8.147-2.636,14.497-4.912,19.169-6.829.12,3.834,1.198,7.308,3.115,10.304-7.668,4.672-16.893,9.345-25.519,11.621ZM466.462,342.891c-8.626-2.276-17.851-6.949-25.399-11.502,1.797-2.875,2.875-6.11,3.115-9.704,4.553,1.797,10.423,3.834,17.612,6.23-12.819-9.585-9.225-7.308-17.612-12.22v-.958c7.428-3.714,4.313-2.037,16.653-9.824-6.829,1.558-12.34,2.995-16.653,4.193v-.839c0-3.474-.958-6.709-2.516-9.585,9.345-5.391,17.133-9.465,23.123-11.741,27.077-10.543,20.248,60.982,1.677,55.95Z"/>
  </g>
  <path class="st0" d="M174.641,395.798v127.488c0,25.947-21.207,46.903-47.153,46.903H47.153c-25.946,0-47.153-20.957-47.153-46.903v-32.683h31.186v32.683c0,8.732,7.235,15.967,15.967,15.967h80.335c8.732,0,15.967-7.235,15.967-15.967v-127.488h31.186Z"/>
  <metadata>
    <sfw xmlns="http://ns.adobe.com/SaveForWeb/1.0/">
      <slices/>
      <sliceSourceBounds x="1.41" y="-1678.23" width="1965.18" height="1678.23" bottomLeftOrigin="true"/>
    </sfw>
  </metadata>
</svg>