<?xml version="1.0" encoding="UTF-8"?>
<svg id="Layer_1" xmlns="http://www.w3.org/2000/svg" version="1.1" viewBox="0 0 799.831 570.591">
  <!-- Generator: Adobe Illustrator 30.1.0, SVG Export Plug-In . SVG Version: 2.1.1 Build 136)  -->
  <defs>
    <style>
      .st0 {
        fill-rule: evenodd;
      }
    </style>
  </defs>
  <polygon points="585.823 551.147 586.182 551.147 585.823 551.626 585.823 551.147"/>
  <polygon points="732.931 482.448 778.13 423.941 799.831 395.766 764.223 395.766 763.863 395.766 732.931 395.766 724.299 395.766 719.143 402.6 695.045 433.772 671.066 402.6 665.791 395.766 657.279 395.766 626.106 395.766 590.618 395.766 612.319 423.941 657.518 482.448 612.678 540.476 590.978 568.651 626.466 568.651 657.638 568.651 666.27 568.651 671.426 561.937 695.285 531.125 719.143 561.937 724.418 568.651 732.931 568.651 764.103 568.651 799.711 568.651 777.891 540.476 732.931 482.448"/>
  <polygon points="734.25 551.626 734.01 551.147 734.25 551.147 734.25 551.626"/>
  <path d="M325.584,550.036h-27.424l-12.537-24.485-29.971-58.765-29.97,58.765-12.537,24.485h-27.424l12.537-24.485,57.394-112.634,57.395,112.634,12.537,24.485Z"/>
  <path d="M299.524,550.036h.391l-.391.391v-.391ZM436.643,412.722l-53.084,68.756-2.938,3.722v64.641h-24.486v-64.249l-3.331-4.114-53.084-68.756h30.95l37.61,48.776,37.61-48.776h30.753ZM436.447,550.036h.196v.391l-.196-.391Z"/>
  <path d="M460.144,449.94v12.732h88.148v24.486h-88.148v25.856c0,6.857,5.68,12.537,12.537,12.537h100.098v24.485h-100.098c-20.372,0-36.827-16.649-36.827-37.021v-63.075c0-20.372,16.455-37.023,36.827-37.023h100.098v24.486h-100.098c-6.857,0-12.537,5.681-12.537,12.537Z"/>
  <g>
    <g>
      <g>
        <path class="st0" d="M339.705,145.67c15.106,0,27.336,12.229,27.336,27.336s-12.229,27.336-27.336,27.336-27.336-12.229-27.336-27.336c0-15.106,12.229-27.336,27.336-27.336"/>
        <path d="M339.705,132.242c11.27,0,21.461,4.556,28.774,11.869,7.313,7.433,11.869,17.504,11.869,28.774s-4.556,21.341-11.869,28.774c-7.313,7.313-17.504,11.869-28.774,11.869s-21.341-4.556-28.774-11.869c-7.433-7.433-11.869-17.504-11.869-28.774s4.556-21.341,11.869-28.774c7.313-7.313,17.504-11.869,28.774-11.869M364.762,147.948c-6.354-6.354-15.226-10.311-25.058-10.311-9.711,0-18.583,3.956-25.058,10.311-6.354,6.354-10.311,15.226-10.311,25.058,0,9.711,3.956,18.583,10.311,25.058,6.354,6.354,15.226,10.311,25.058,10.311s18.583-3.956,25.058-10.311c6.354-6.354,10.431-15.226,10.431-25.058-.12-9.831-4.076-18.703-10.431-25.058"/>
      </g>
      <g>
        <path class="st0" d="M493.647,145.67c15.106,0,27.336,12.229,27.336,27.336s-12.229,27.336-27.336,27.336-27.336-12.229-27.336-27.336,12.229-27.336,27.336-27.336"/>
        <path d="M493.647,132.242c11.27,0,21.341,4.556,28.774,11.869,7.433,7.433,11.869,17.504,11.869,28.774s-4.556,21.341-11.869,28.774c-7.313,7.313-17.504,11.869-28.774,11.869s-21.461-4.556-28.774-11.869c-7.313-7.433-11.869-17.504-11.869-28.774s4.556-21.341,11.869-28.774c7.313-7.313,17.504-11.869,28.774-11.869M518.585,147.948c-6.354-6.354-15.226-10.311-25.058-10.311s-18.583,3.956-25.058,10.311c-6.354,6.354-10.431,15.226-10.431,25.058,0,9.711,3.956,18.583,10.431,25.058,6.354,6.354,15.226,10.311,25.058,10.311,9.711,0,18.583-3.956,25.058-10.311,6.354-6.354,10.311-15.226,10.311-25.058.12-9.831-3.837-18.703-10.311-25.058"/>
      </g>
    </g>
    <path class="st0" d="M663.655,19.782c-9.352,15.466-26.616,40.644-30.213,47.358l-2.398-28.774-47.358,49.995c-16.305-30.932-46.039-53.712-81.407-60.426-8.872-15.706-44.72-27.096-81.527-27.935h-8.153c-36.807.839-72.655,12.229-81.527,27.935-35.368,6.714-65.102,29.494-81.407,60.426l-47.358-50.115-2.398,28.774c-3.597-6.594-20.861-31.891-30.213-47.358-2.518,9.112,5.635,80.208,7.793,89.32,2.158,8.992,17.025,70.857,28.415,69.897,1.559-.599,4.676-13.068,8.392-24.338l26.017,48.317c12.229,48.676,52.033,86.802,101.549,96.514.48-3.597,1.319-7.074,2.638-10.311-55.39-10.551-97.593-59.467-97.593-117.855v-29.374c0-50.115,35.368-92.437,82.486-102.988.12.36.24.719.36,1.079l27.695,74.813c3.477,9.352,9.352,17.504,20.502,17.504h77.451c11.15,0,17.025-8.153,20.502-17.504l27.695-74.573c.12-.36.24-.719.36-1.079,46.998,10.67,82.486,52.873,82.486,102.988v29.374c0,58.388-42.202,107.304-97.593,117.855,1.319,3.237,2.158,6.714,2.638,10.311,49.636-9.711,89.32-47.837,101.549-96.514l26.017-48.317c3.837,11.15,6.834,23.619,8.392,24.338,11.39,1.079,26.257-60.905,28.415-69.897,2.158-9.352,10.311-80.328,7.793-89.44ZM208.183,128.645l-4.676,30.573c-13.668-39.565-20.861-69.298-26.496-111.74l29.014,53.112,5.395-40.164,33.45,38.246c-5.515,13.428-8.512,28.055-8.512,43.401v29.374c0,1.678,0,3.357.12,5.035l-28.295-47.837ZM493.527,36.447l-27.695,74.573c-2.038,5.395-4.796,10.551-10.551,10.551h-77.211c-5.755,0-8.512-5.155-10.551-10.551l-27.695-74.573c-3.237-8.872,37.407-20.861,76.971-21.221,39.325.36,80.088,12.349,76.731,21.221ZM629.725,159.217l-4.676-30.573-28.295,47.837c.12-1.678.12-3.357.12-5.035v-29.374c0-15.346-2.997-29.973-8.512-43.401l33.45-38.246,5.395,40.164,29.014-53.112c-5.635,42.322-12.709,72.175-26.496,111.74Z"/>
    <path d="M465.712,259.328h-98.072c-35.009,0-53.712-17.265-60.066-24.458l-5.275,4.316c7.194,8.153,27.695,26.856,65.342,26.856h98.072c37.526,0,58.028-18.703,65.342-26.856l-5.275-4.316c-6.354,7.313-25.058,24.458-60.066,24.458Z"/>
    <path class="st0" d="M479.26,277.671c-5.755-2.997-11.989-2.758-17.984-.48-6.234,2.398-12.469,5.755-18.224,8.992-2.877,1.559-5.875,3.237-8.752,4.916-2.877-1.678-6.234-2.518-9.711-2.518h-15.706c-3.597,0-6.834.959-9.711,2.518-2.877-1.678-5.875-3.357-8.752-4.916-5.875-3.237-11.989-6.594-18.224-8.992-5.875-2.278-12.229-2.518-17.984.48-13.308,6.834-15.226,25.777-14.147,38.965,1.079,13.068,6.234,34.05,21.461,37.047,2.638.48,5.275.36,7.913-.24,9.951-2.638,21.101-8.153,31.052-14.387,2.518,1.199,5.395,1.918,8.512,1.918h15.706c2.997,0,5.875-.719,8.512-1.918,10.071,6.115,21.221,11.749,31.052,14.387,2.518.719,5.275.839,7.913.24,15.226-2.997,20.502-23.979,21.461-37.047.839-13.188-1.079-32.251-14.387-38.965ZM366.441,343.133c-18.583,5.036-25.417-66.54,1.678-56.23,5.995,2.278,13.668,6.474,23.139,11.749-1.559,2.877-2.518,6.115-2.518,9.591v1.319c-4.436-1.439-10.431-2.877-18.104-4.676,12.829,8.033,8.872,5.995,17.504,10.311-9.591,5.635-5.155,2.877-18.463,12.829,8.153-2.638,14.507-4.916,19.183-6.834.12,3.837,1.199,7.313,3.117,10.311-7.673,4.676-16.905,9.352-25.537,11.63ZM466.791,343.133c-8.632-2.278-17.864-6.954-25.417-11.51,1.798-2.877,2.877-6.115,3.117-9.711,4.556,1.798,10.431,3.837,17.624,6.234-12.829-9.591-9.232-7.313-17.624-12.229v-.959c7.433-3.717,4.316-2.038,16.665-9.831-6.834,1.559-12.349,2.997-16.665,4.196v-.839c0-3.477-.959-6.714-2.518-9.591,9.352-5.395,17.145-9.472,23.139-11.749,27.096-10.551,20.262,61.025,1.679,55.99Z"/>
  </g>
  <path d="M174.764,396.077v127.577c0,25.965-21.222,46.936-47.186,46.936H47.186c-25.965,0-47.186-20.971-47.186-46.936v-32.706h31.208v32.706c0,8.738,7.24,15.978,15.978,15.978h80.392c8.738,0,15.978-7.24,15.978-15.978v-127.577h31.208Z"/>
  <metadata>
    <sfw xmlns="http://ns.adobe.com/SaveForWeb/1.0/">
      <slices/>
      <sliceSourceBounds x="1.41" y="-1678.23" width="1965.18" height="1678.23" bottomLeftOrigin="true"/>
    </sfw>
  </metadata>
</svg>